<svg xmlns="http://www.w3.org/2000/svg" xmlns:xlink="http://www.w3.org/1999/xlink" width="279" zoomAndPan="magnify" viewBox="0 0 209.25 209.249995" height="279" preserveAspectRatio="xMidYMid meet" version="1.0"><defs><clipPath id="43e20d8908"><path d="M 0 0 L 207.753906 0 L 207.753906 207.753906 L 0 207.753906 Z M 0 0 " clip-rule="nonzero"/></clipPath><clipPath id="51f4e14d0c"><path d="M 114 129 L 127 129 L 127 173.582031 L 114 173.582031 Z M 114 129 " clip-rule="nonzero"/></clipPath><clipPath id="09b3b2314d"><path d="M 81 129 L 94 129 L 94 173.582031 L 81 173.582031 Z M 81 129 " clip-rule="nonzero"/></clipPath></defs><g clip-path="url(#43e20d8908)"><path fill="#783786" d="M 208.035156 104.019531 C 208.035156 105.71875 207.992188 107.421875 207.910156 109.121094 C 207.828125 110.820312 207.703125 112.519531 207.535156 114.214844 C 207.367188 115.90625 207.160156 117.597656 206.910156 119.28125 C 206.660156 120.964844 206.367188 122.640625 206.035156 124.3125 C 205.703125 125.980469 205.332031 127.640625 204.917969 129.292969 C 204.503906 130.945312 204.050781 132.582031 203.554688 134.210938 C 203.0625 135.839844 202.527344 137.457031 201.957031 139.058594 C 201.382812 140.664062 200.769531 142.25 200.117188 143.824219 C 199.464844 145.394531 198.777344 146.953125 198.046875 148.492188 C 197.320312 150.03125 196.554688 151.550781 195.753906 153.050781 C 194.949219 154.554688 194.113281 156.035156 193.238281 157.492188 C 192.363281 158.953125 191.449219 160.390625 190.503906 161.808594 C 189.558594 163.222656 188.578125 164.613281 187.566406 165.980469 C 186.550781 167.347656 185.503906 168.691406 184.425781 170.007812 C 183.34375 171.320312 182.234375 172.609375 181.089844 173.871094 C 179.945312 175.132812 178.773438 176.367188 177.570312 177.570312 C 176.367188 178.773438 175.132812 179.945312 173.871094 181.089844 C 172.609375 182.234375 171.320312 183.34375 170.007812 184.425781 C 168.691406 185.503906 167.347656 186.550781 165.980469 187.566406 C 164.613281 188.578125 163.222656 189.558594 161.808594 190.503906 C 160.390625 191.449219 158.953125 192.363281 157.492188 193.238281 C 156.035156 194.113281 154.554688 194.949219 153.050781 195.753906 C 151.550781 196.554688 150.03125 197.320312 148.492188 198.046875 C 146.953125 198.777344 145.394531 199.464844 143.824219 200.117188 C 142.25 200.769531 140.664062 201.382812 139.058594 201.957031 C 137.457031 202.527344 135.839844 203.0625 134.210938 203.554688 C 132.582031 204.050781 130.941406 204.503906 129.292969 204.917969 C 127.640625 205.332031 125.980469 205.703125 124.3125 206.035156 C 122.640625 206.367188 120.964844 206.660156 119.28125 206.910156 C 117.597656 207.160156 115.90625 207.367188 114.214844 207.535156 C 112.519531 207.703125 110.820312 207.828125 109.121094 207.910156 C 107.421875 207.992188 105.71875 208.035156 104.019531 208.035156 C 102.316406 208.035156 100.613281 207.992188 98.914062 207.910156 C 97.214844 207.828125 95.515625 207.703125 93.820312 207.535156 C 92.128906 207.367188 90.4375 207.160156 88.753906 206.910156 C 87.070312 206.660156 85.394531 206.367188 83.726562 206.035156 C 82.054688 205.703125 80.394531 205.332031 78.742188 204.917969 C 77.09375 204.503906 75.453125 204.050781 73.824219 203.554688 C 72.195312 203.0625 70.578125 202.527344 68.976562 201.957031 C 67.371094 201.382812 65.785156 200.769531 64.210938 200.117188 C 62.640625 199.464844 61.082031 198.777344 59.542969 198.046875 C 58.003906 197.320312 56.484375 196.554688 54.984375 195.753906 C 53.484375 194.949219 52.003906 194.113281 50.542969 193.238281 C 49.082031 192.363281 47.644531 191.449219 46.230469 190.503906 C 44.8125 189.558594 43.421875 188.578125 42.054688 187.566406 C 40.6875 186.550781 39.34375 185.503906 38.03125 184.425781 C 36.714844 183.34375 35.425781 182.234375 34.164062 181.089844 C 32.902344 179.945312 31.667969 178.773438 30.464844 177.570312 C 29.261719 176.367188 28.089844 175.132812 26.945312 173.871094 C 25.800781 172.609375 24.691406 171.320312 23.609375 170.007812 C 22.53125 168.691406 21.484375 167.347656 20.46875 165.980469 C 19.457031 164.613281 18.476562 163.222656 17.53125 161.808594 C 16.585938 160.390625 15.675781 158.953125 14.796875 157.492188 C 13.921875 156.035156 13.085938 154.554688 12.28125 153.050781 C 11.480469 151.550781 10.714844 150.03125 9.988281 148.492188 C 9.257812 146.953125 8.570312 145.394531 7.917969 143.824219 C 7.265625 142.25 6.652344 140.664062 6.082031 139.058594 C 5.507812 137.457031 4.972656 135.839844 4.480469 134.210938 C 3.984375 132.582031 3.53125 130.941406 3.117188 129.292969 C 2.703125 127.640625 2.332031 125.980469 2 124.3125 C 1.667969 122.640625 1.375 120.964844 1.125 119.28125 C 0.875 117.597656 0.667969 115.90625 0.5 114.214844 C 0.335938 112.519531 0.207031 110.820312 0.125 109.121094 C 0.0429688 107.421875 0 105.71875 0 104.019531 C 0 102.316406 0.0429688 100.613281 0.125 98.914062 C 0.207031 97.214844 0.335938 95.515625 0.5 93.824219 C 0.667969 92.128906 0.875 90.4375 1.125 88.753906 C 1.375 87.070312 1.667969 85.394531 2 83.726562 C 2.332031 82.054688 2.703125 80.394531 3.117188 78.742188 C 3.53125 77.09375 3.984375 75.453125 4.480469 73.824219 C 4.972656 72.195312 5.507812 70.578125 6.082031 68.976562 C 6.652344 67.371094 7.265625 65.785156 7.917969 64.210938 C 8.570312 62.640625 9.257812 61.082031 9.988281 59.542969 C 10.714844 58.003906 11.480469 56.484375 12.28125 54.984375 C 13.085938 53.484375 13.921875 52.003906 14.796875 50.542969 C 15.675781 49.082031 16.585938 47.644531 17.53125 46.230469 C 18.476562 44.8125 19.457031 43.421875 20.46875 42.054688 C 21.484375 40.6875 22.53125 39.34375 23.609375 38.03125 C 24.691406 36.714844 25.800781 35.425781 26.945312 34.164062 C 28.089844 32.902344 29.261719 31.667969 30.464844 30.464844 C 31.667969 29.261719 32.902344 28.089844 34.164062 26.945312 C 35.425781 25.800781 36.714844 24.691406 38.03125 23.609375 C 39.34375 22.53125 40.6875 21.484375 42.054688 20.46875 C 43.421875 19.457031 44.8125 18.476562 46.230469 17.53125 C 47.644531 16.585938 49.082031 15.675781 50.542969 14.796875 C 52.003906 13.921875 53.484375 13.085938 54.984375 12.28125 C 56.484375 11.480469 58.003906 10.714844 59.542969 9.988281 C 61.082031 9.257812 62.640625 8.570312 64.210938 7.917969 C 65.785156 7.265625 67.371094 6.652344 68.976562 6.082031 C 70.578125 5.507812 72.195312 4.972656 73.824219 4.480469 C 75.453125 3.984375 77.09375 3.53125 78.742188 3.117188 C 80.394531 2.703125 82.054688 2.332031 83.726562 2 C 85.394531 1.667969 87.070312 1.375 88.753906 1.125 C 90.4375 0.875 92.128906 0.667969 93.820312 0.5 C 95.515625 0.335938 97.214844 0.207031 98.914062 0.125 C 100.613281 0.0429688 102.316406 0 104.019531 0 C 105.71875 0 107.421875 0.0429688 109.121094 0.125 C 110.820312 0.207031 112.519531 0.335938 114.214844 0.5 C 115.90625 0.667969 117.597656 0.875 119.28125 1.125 C 120.964844 1.375 122.640625 1.667969 124.3125 2 C 125.980469 2.332031 127.640625 2.703125 129.292969 3.117188 C 130.941406 3.53125 132.582031 3.984375 134.210938 4.480469 C 135.839844 4.972656 137.457031 5.507812 139.058594 6.082031 C 140.664062 6.652344 142.25 7.265625 143.824219 7.917969 C 145.394531 8.570312 146.953125 9.257812 148.492188 9.988281 C 150.03125 10.714844 151.550781 11.480469 153.050781 12.28125 C 154.554688 13.085938 156.035156 13.921875 157.492188 14.796875 C 158.953125 15.675781 160.390625 16.585938 161.808594 17.53125 C 163.222656 18.476562 164.613281 19.457031 165.980469 20.46875 C 167.347656 21.484375 168.691406 22.53125 170.007812 23.609375 C 171.320312 24.691406 172.609375 25.800781 173.871094 26.945312 C 175.132812 28.089844 176.367188 29.261719 177.570312 30.464844 C 178.773438 31.667969 179.945312 32.902344 181.089844 34.164062 C 182.234375 35.425781 183.34375 36.714844 184.425781 38.03125 C 185.503906 39.34375 186.550781 40.6875 187.566406 42.054688 C 188.578125 43.421875 189.558594 44.8125 190.503906 46.230469 C 191.449219 47.644531 192.363281 49.082031 193.238281 50.542969 C 194.113281 52.003906 194.949219 53.484375 195.753906 54.984375 C 196.554688 56.484375 197.320312 58.003906 198.046875 59.542969 C 198.777344 61.082031 199.464844 62.640625 200.117188 64.210938 C 200.769531 65.785156 201.382812 67.371094 201.957031 68.976562 C 202.527344 70.578125 203.0625 72.195312 203.554688 73.824219 C 204.050781 75.453125 204.503906 77.09375 204.917969 78.742188 C 205.332031 80.394531 205.703125 82.054688 206.035156 83.726562 C 206.367188 85.394531 206.660156 87.070312 206.910156 88.753906 C 207.160156 90.4375 207.367188 92.128906 207.535156 93.824219 C 207.703125 95.515625 207.828125 97.214844 207.910156 98.914062 C 207.992188 100.613281 208.035156 102.316406 208.035156 104.019531 Z M 208.035156 104.019531 " fill-opacity="1" fill-rule="nonzero"/></g><path fill="#ffffff" d="M 93.589844 135.074219 C 93.527344 135.074219 93.46875 135.066406 93.40625 135.058594 C 88.855469 134.410156 85.847656 132.203125 85.726562 132.105469 C 85.152344 131.683594 85.035156 130.878906 85.457031 130.308594 C 85.878906 129.742188 86.6875 129.621094 87.253906 130.042969 C 87.300781 130.074219 89.910156 131.960938 93.769531 132.507812 C 94.472656 132.613281 94.960938 133.269531 94.863281 133.972656 C 94.765625 134.613281 94.21875 135.074219 93.589844 135.074219 " fill-opacity="1" fill-rule="nonzero"/><path fill="#ffffff" d="M 46.042969 110.164062 C 45.433594 110.164062 44.820312 110.132812 44.207031 110.066406 C 38.535156 109.503906 33.28125 106.058594 30.492188 101.09375 C 27.949219 96.558594 28.3125 92 31.441406 89.199219 C 34.644531 86.328125 41.535156 85.222656 50.414062 91.570312 C 51.402344 92.273438 52.371094 93.023438 53.320312 93.738281 C 54.480469 94.632812 55.691406 95.5625 56.898438 96.386719 C 57.488281 96.789062 57.640625 97.59375 57.238281 98.183594 C 56.835938 98.765625 56.035156 98.910156 55.449219 98.507812 C 54.183594 97.644531 52.949219 96.699219 51.753906 95.785156 C 50.824219 95.082031 49.867188 94.347656 48.914062 93.667969 C 41.28125 88.203125 35.652344 88.878906 33.160156 91.117188 C 30.980469 93.066406 30.8125 96.410156 32.738281 99.832031 C 35.121094 104.085938 39.609375 107.023438 44.464844 107.511719 C 50.441406 108.113281 56.496094 105.082031 61.363281 102.652344 C 61.675781 102.5 62.039062 102.480469 62.371094 102.59375 C 67.730469 104.519531 72.160156 103.800781 77.289062 102.972656 L 77.78125 102.894531 C 78.476562 102.785156 79.140625 103.257812 79.257812 103.957031 C 79.371094 104.660156 78.890625 105.324219 78.1875 105.433594 L 77.703125 105.515625 C 72.601562 106.335938 67.78125 107.113281 62.027344 105.195312 C 57.429688 107.492188 51.878906 110.164062 46.042969 110.164062 " fill-opacity="1" fill-rule="nonzero"/><path fill="#ffffff" d="M 114.613281 135.074219 C 113.984375 135.074219 113.4375 134.613281 113.339844 133.972656 C 113.246094 133.269531 113.730469 132.613281 114.433594 132.507812 C 118.308594 131.953125 120.921875 130.0625 120.949219 130.042969 C 121.519531 129.621094 122.324219 129.742188 122.746094 130.308594 C 123.167969 130.886719 123.046875 131.683594 122.476562 132.105469 C 122.355469 132.203125 119.351562 134.410156 114.796875 135.058594 C 114.734375 135.066406 114.675781 135.074219 114.613281 135.074219 " fill-opacity="1" fill-rule="nonzero"/><g clip-path="url(#51f4e14d0c)"><path fill="#ffffff" d="M 116.140625 173.847656 C 116.027344 173.847656 115.910156 173.835938 115.796875 173.804688 C 115.113281 173.613281 114.707031 172.902344 114.902344 172.21875 L 123.261719 142.0625 C 124.363281 138.492188 123.570312 135.367188 120.71875 131.890625 C 120.265625 131.347656 120.347656 130.535156 120.898438 130.078125 C 121.441406 129.632812 122.253906 129.710938 122.707031 130.257812 C 126.121094 134.414062 127.078125 138.398438 125.730469 142.785156 L 117.382812 172.902344 C 117.222656 173.480469 116.703125 173.847656 116.140625 173.847656 " fill-opacity="1" fill-rule="nonzero"/></g><path fill="#ffffff" d="M 177.453125 93.527344 C 176.960938 93.527344 176.488281 93.246094 176.277344 92.765625 C 175.984375 92.121094 176.269531 91.359375 176.921875 91.066406 C 177.433594 90.835938 177.972656 90.503906 178.503906 90.074219 C 180.074219 88.824219 181.320312 87.03125 182.101562 84.898438 C 183.988281 79.75 183.707031 74.167969 181.355469 69.960938 C 179.257812 66.222656 175.464844 63.21875 170.664062 61.503906 C 166.800781 60.128906 162.289062 59.523438 156.472656 59.59375 C 147.75 59.707031 138.582031 61.597656 128.441406 65.382812 C 128.097656 65.511719 127.714844 65.488281 127.378906 65.308594 C 120.648438 61.683594 112.597656 59.765625 104.101562 59.765625 C 95.605469 59.765625 87.554688 61.683594 80.824219 65.308594 C 80.496094 65.488281 80.105469 65.511719 79.761719 65.382812 C 69.621094 61.597656 60.453125 59.707031 51.734375 59.59375 C 45.910156 59.523438 41.402344 60.128906 37.539062 61.503906 C 32.738281 63.21875 28.945312 66.222656 26.851562 69.960938 C 24.496094 74.167969 24.214844 79.75 26.101562 84.898438 C 26.882812 87.03125 28.128906 88.824219 29.699219 90.074219 C 30.230469 90.503906 30.769531 90.835938 31.28125 91.066406 C 31.925781 91.359375 32.21875 92.121094 31.925781 92.765625 C 31.636719 93.414062 30.878906 93.707031 30.226562 93.414062 C 29.515625 93.101562 28.800781 92.652344 28.097656 92.089844 C 26.152344 90.535156 24.625 88.363281 23.683594 85.78125 C 21.511719 79.851562 21.851562 73.632812 24.605469 68.703125 C 27.003906 64.417969 31.285156 61 36.675781 59.082031 C 40.832031 57.597656 45.632812 56.953125 51.765625 57.023438 C 60.625 57.136719 69.910156 59.015625 80.113281 62.769531 C 87.113281 59.117188 95.394531 57.1875 104.101562 57.1875 C 112.808594 57.1875 121.089844 59.117188 128.089844 62.769531 C 138.292969 59.015625 147.570312 57.136719 156.4375 57.023438 C 162.570312 56.945312 167.371094 57.597656 171.527344 59.082031 C 176.910156 61 181.199219 64.417969 183.597656 68.703125 C 186.359375 73.632812 186.691406 79.851562 184.519531 85.78125 C 183.574219 88.363281 182.050781 90.542969 180.109375 92.089844 C 179.402344 92.652344 178.6875 93.09375 177.976562 93.414062 C 177.804688 93.488281 177.625 93.527344 177.453125 93.527344 " fill-opacity="1" fill-rule="nonzero"/><path fill="#ffffff" d="M 162.160156 110.164062 C 156.324219 110.164062 150.773438 107.492188 146.175781 105.195312 C 140.421875 107.113281 135.601562 106.335938 130.5 105.515625 L 130.015625 105.433594 C 129.3125 105.324219 128.832031 104.660156 128.945312 103.957031 C 129.0625 103.257812 129.726562 102.785156 130.425781 102.894531 L 130.917969 102.972656 C 136.042969 103.800781 140.472656 104.519531 145.832031 102.59375 C 146.164062 102.472656 146.527344 102.5 146.84375 102.652344 C 151.707031 105.082031 157.769531 108.113281 163.738281 107.511719 C 168.59375 107.023438 173.082031 104.085938 175.464844 99.832031 C 177.390625 96.410156 177.222656 93.066406 175.042969 91.117188 C 172.550781 88.878906 166.925781 88.203125 159.289062 93.667969 C 158.335938 94.347656 157.378906 95.082031 156.453125 95.785156 C 155.257812 96.699219 154.023438 97.644531 152.757812 98.507812 C 152.167969 98.910156 151.367188 98.765625 150.964844 98.183594 C 150.5625 97.59375 150.714844 96.789062 151.304688 96.386719 C 152.511719 95.5625 153.722656 94.632812 154.886719 93.738281 C 155.832031 93.023438 156.804688 92.273438 157.789062 91.570312 C 166.667969 85.222656 173.5625 86.328125 176.765625 89.199219 C 179.890625 92 180.253906 96.558594 177.710938 101.09375 C 174.921875 106.058594 169.667969 109.503906 163.996094 110.066406 C 163.382812 110.132812 162.769531 110.164062 162.160156 110.164062 " fill-opacity="1" fill-rule="nonzero"/><path fill="#ffffff" d="M 121.804688 132.363281 C 121.152344 132.363281 120.597656 131.871094 120.527344 131.210938 C 120.136719 127.433594 121.753906 124.210938 123.328125 121.097656 C 123.601562 120.546875 123.875 119.996094 124.140625 119.441406 C 127.34375 112.785156 129.695312 102.863281 130.425781 92.890625 C 130.476562 92.179688 131.082031 91.648438 131.796875 91.699219 C 132.507812 91.75 133.046875 92.363281 132.992188 93.074219 C 132.234375 103.347656 129.796875 113.628906 126.460938 120.558594 C 126.191406 121.121094 125.902344 121.691406 125.621094 122.246094 C 124.160156 125.164062 122.769531 127.917969 123.085938 130.941406 C 123.160156 131.652344 122.648438 132.285156 121.941406 132.355469 C 121.894531 132.363281 121.851562 132.363281 121.804688 132.363281 " fill-opacity="1" fill-rule="nonzero"/><g clip-path="url(#09b3b2314d)"><path fill="#ffffff" d="M 92.074219 173.847656 C 91.507812 173.847656 90.988281 173.480469 90.835938 172.902344 L 82.472656 142.75 C 81.128906 138.398438 82.09375 134.414062 85.507812 130.257812 C 85.957031 129.710938 86.769531 129.632812 87.320312 130.078125 C 87.867188 130.535156 87.945312 131.347656 87.5 131.890625 C 84.640625 135.367188 83.855469 138.492188 84.941406 142.027344 L 93.316406 172.21875 C 93.5 172.902344 93.105469 173.613281 92.414062 173.804688 C 92.300781 173.835938 92.183594 173.847656 92.074219 173.847656 " fill-opacity="1" fill-rule="nonzero"/></g><path fill="#ffffff" d="M 86.40625 132.363281 C 86.359375 132.363281 86.316406 132.363281 86.269531 132.355469 C 85.566406 132.285156 85.050781 131.652344 85.125 130.941406 C 85.4375 127.917969 84.050781 125.164062 82.589844 122.246094 C 82.304688 121.691406 82.023438 121.121094 81.75 120.558594 C 78.417969 113.628906 75.976562 103.347656 75.222656 93.074219 C 75.171875 92.363281 75.703125 91.75 76.410156 91.699219 C 77.121094 91.648438 77.734375 92.179688 77.785156 92.890625 C 78.523438 102.863281 80.867188 112.785156 84.070312 119.441406 C 84.332031 119.996094 84.613281 120.546875 84.890625 121.097656 C 86.457031 124.210938 88.074219 127.433594 87.683594 131.210938 C 87.613281 131.871094 87.058594 132.363281 86.40625 132.363281 " fill-opacity="1" fill-rule="nonzero"/><path fill="#f18fb9" d="M 177.1875 72.296875 C 175.675781 69.605469 172.714844 67.308594 169.054688 66.003906 C 165.746094 64.820312 161.769531 64.308594 156.535156 64.375 C 150.785156 64.445312 144.804688 65.359375 138.410156 67.148438 C 153.785156 70.289062 167.339844 75.480469 177.972656 82.117188 C 178.96875 78.605469 178.699219 75.007812 177.1875 72.296875 " fill-opacity="1" fill-rule="nonzero"/><path fill="#f18fb9" d="M 39.152344 66.003906 C 35.488281 67.308594 32.527344 69.605469 31.019531 72.296875 C 29.503906 75.007812 29.234375 78.605469 30.230469 82.117188 C 40.863281 75.480469 54.417969 70.289062 69.792969 67.148438 C 63.402344 65.359375 57.417969 64.445312 51.667969 64.375 C 46.4375 64.308594 42.457031 64.820312 39.152344 66.003906 " fill-opacity="1" fill-rule="nonzero"/><path fill="#ffffff" d="M 95.207031 72.085938 C 95.035156 72.085938 94.863281 72.085938 94.683594 72.097656 C 91.597656 72.300781 88.789062 74.136719 87.371094 76.886719 C 86.214844 79.109375 86.058594 81.574219 86.910156 84.199219 C 87.269531 85.304688 87.804688 86.386719 88.5 87.390625 C 88.777344 87.785156 89.058594 88.15625 89.351562 88.492188 C 90.617188 89.96875 93.316406 92.671875 96.25 95.144531 C 96.488281 95.332031 101.539062 99.402344 104.179688 103.074219 C 106.8125 99.402344 111.871094 95.332031 112.121094 95.125 C 115.035156 92.671875 117.734375 89.96875 119 88.496094 C 119.292969 88.15625 119.574219 87.785156 119.847656 87.390625 C 120.546875 86.386719 121.082031 85.304688 121.441406 84.199219 C 122.292969 81.574219 122.136719 79.109375 120.988281 76.886719 C 119.5625 74.136719 116.753906 72.300781 113.671875 72.097656 C 108.027344 71.734375 105.464844 77.386719 105.355469 77.628906 C 105.152344 78.09375 104.683594 78.394531 104.179688 78.394531 C 104.171875 78.394531 104.171875 78.394531 104.171875 78.394531 C 103.660156 78.394531 103.199219 78.09375 102.996094 77.628906 C 102.894531 77.390625 100.496094 72.085938 95.207031 72.085938 Z M 104.179688 106.863281 C 103.667969 106.863281 103.207031 106.566406 102.996094 106.097656 C 101.742188 103.253906 96.527344 98.664062 94.621094 97.132812 C 91.941406 94.882812 89.050781 92.089844 87.402344 90.171875 C 87.050781 89.769531 86.710938 89.320312 86.386719 88.855469 C 85.546875 87.644531 84.894531 86.34375 84.460938 84.992188 C 83.40625 81.734375 83.625 78.523438 85.082031 75.695312 C 86.917969 72.15625 90.535156 69.789062 94.511719 69.535156 C 99.542969 69.203125 102.632812 72.351562 104.179688 74.558594 C 105.71875 72.351562 108.828125 69.207031 113.839844 69.535156 C 117.824219 69.789062 121.433594 72.15625 123.269531 75.695312 C 124.734375 78.523438 124.945312 81.734375 123.890625 84.992188 C 123.453125 86.34375 122.804688 87.644531 121.964844 88.855469 C 121.644531 89.320312 121.300781 89.769531 120.949219 90.171875 C 119.300781 92.089844 116.410156 94.882812 113.757812 97.113281 C 111.824219 98.664062 106.609375 103.253906 105.355469 106.097656 C 105.152344 106.566406 104.683594 106.863281 104.179688 106.863281 " fill-opacity="1" fill-rule="nonzero"/></svg>